<svg xmlns="http://www.w3.org/2000/svg" xmlns:xlink="http://www.w3.org/1999/xlink" width="500" zoomAndPan="magnify" viewBox="0 0 375 374.999991" height="500" preserveAspectRatio="xMidYMid meet" version="1.0"><defs><clipPath id="71d3645adc"><path d="M 135 94.421875 L 240.476562 94.421875 L 240.476562 205.421875 L 135 205.421875 Z M 135 94.421875 " clip-rule="nonzero"/></clipPath></defs><g clip-path="url(#71d3645adc)"><path fill="#7ec802" d="M 165.136719 119.261719 C 162.890625 115.933594 161.578125 111.914062 162.175781 107.875 C 162.867188 106.675781 163.511719 105.457031 164.113281 104.191406 C 162.710938 107.609375 163.488281 111.359375 165.425781 114.402344 C 165.582031 109.804688 165.847656 105.1875 167.425781 100.792969 C 167.695312 100.636719 168.25 100.347656 168.515625 100.195312 C 168.648438 104.125 169.761719 108.121094 168.761719 112.027344 C 168.207031 114.734375 166.515625 116.953125 165.136719 119.261719 Z M 210.308594 131.03125 C 210.289062 131.984375 210.265625 132.917969 210.242188 133.871094 C 212.355469 131.472656 213.933594 128.632812 214.601562 125.523438 C 212.535156 126.789062 211.15625 128.789062 210.308594 131.03125 Z M 168.117188 145.105469 C 165.089844 144.839844 162.023438 144.90625 158.976562 144.660156 C 156.082031 144.503906 153.570312 142.863281 151.125 141.484375 C 155.925781 139.777344 161.019531 141.796875 165.625 143.195312 C 165.667969 143.0625 165.738281 142.773438 165.757812 142.640625 C 165.15625 142.394531 164.558594 142.152344 163.957031 141.90625 C 161.667969 139.710938 158.707031 137.890625 155.4375 137.910156 C 151.96875 137.757812 149.03125 139.910156 146.230469 141.640625 C 148.632812 143.371094 151.125 145.105469 153.992188 145.949219 C 158.707031 146.878906 163.445312 145.4375 168.117188 145.105469 Z M 220.140625 174.675781 C 219.761719 170.855469 218.648438 166.59375 218.5625 166.214844 C 218.5625 166.214844 218.5625 166.214844 218.5625 166.195312 C 216.382812 166.039062 214.203125 165.882812 212.023438 165.792969 C 215.378906 170.433594 217.160156 176.207031 216.382812 181.933594 C 215.378906 185.132812 214.089844 188.21875 212.089844 190.925781 L 206.996094 193.921875 L 208.996094 196.71875 C 217.828125 189.304688 219.71875 181.335938 220.097656 178.980469 C 220.316406 177.828125 220.296875 176.296875 220.140625 174.675781 Z M 218.5625 166.214844 C 218.648438 166.59375 219.761719 170.855469 220.140625 174.675781 C 219.984375 171.8125 219.363281 168.96875 218.5625 166.214844 Z M 229.394531 169.148438 C 226.902344 168.503906 224.433594 167.726562 221.941406 167.125 C 222.699219 172.03125 222.652344 177.09375 221.273438 181.890625 C 219.628906 186.195312 217.046875 190.039062 214 193.476562 C 218.496094 190.726562 222.699219 187.261719 225.523438 182.777344 C 227.925781 178.671875 229.925781 174.03125 229.394531 169.148438 Z M 186.511719 167.59375 C 185.332031 168.082031 184.152344 168.546875 182.972656 169.015625 C 185.53125 171.679688 187.84375 174.71875 188.535156 178.425781 C 186.53125 174.941406 183.839844 171.921875 180.617188 169.546875 C 179.503906 170.078125 178.390625 170.632812 177.28125 171.1875 C 182.152344 173.898438 186.289062 177.847656 188.914062 182.777344 C 189.535156 181.800781 190.136719 180.78125 190.558594 179.667969 C 190.625 175.496094 190.648438 171.167969 188.710938 167.347656 C 188.15625 167.394531 187.066406 167.527344 186.511719 167.59375 Z M 174.386719 172.386719 C 172.632812 173.230469 170.964844 174.253906 169.472656 175.496094 C 175.234375 178.449219 180.636719 182.179688 185.175781 186.796875 C 186.132812 185.929688 187.042969 184.996094 187.910156 184.042969 C 184.707031 178.871094 179.835938 174.984375 174.386719 172.386719 Z M 147.71875 173.519531 C 147.875 174.917969 148.03125 176.316406 148.210938 177.738281 C 160.199219 177.828125 172.007812 182.066406 181.550781 189.261719 C 182.261719 188.839844 182.972656 188.394531 183.6875 187.949219 C 175.167969 180.933594 164.78125 176.449219 154.058594 173.988281 C 151.925781 173.742188 149.8125 173.609375 147.71875 173.519531 Z M 178.238281 188.015625 C 177.4375 187.640625 176.636719 187.238281 175.835938 186.816406 C 167.714844 182.46875 158.484375 179.648438 149.210938 180.089844 C 149.789062 180.980469 150.367188 181.84375 150.945312 182.734375 C 150.945312 182.734375 150.96875 182.734375 150.988281 182.734375 C 151.835938 182.820312 164.289062 184.355469 170.5625 188.773438 C 171.207031 189.082031 171.785156 189.503906 172.1875 190.125 C 171.808594 190.257812 171.429688 190.304688 171.097656 190.28125 C 170.742188 190.257812 170.386719 190.148438 170.097656 189.992188 C 160.644531 187.238281 152.125 184.222656 151.855469 184.132812 C 152.214844 184.863281 152.589844 185.621094 152.945312 186.351562 C 153.101562 186.683594 153.390625 187.328125 153.546875 187.660156 C 155.707031 189.902344 158.175781 191.835938 160.796875 193.5 C 162.535156 194.722656 164.757812 194.367188 166.738281 194.144531 C 171.386719 193.476562 176.058594 192.347656 180.171875 190.039062 C 179.816406 189.128906 178.925781 188.636719 178.238281 188.015625 Z M 179.882812 135.535156 C 179.859375 137.089844 180.460938 138.621094 180.75 140.132812 C 182.683594 138.933594 184.6875 137.691406 185.976562 135.734375 C 187.535156 133.003906 188.113281 129.875 188.558594 126.8125 C 184.976562 128.941406 183.886719 133.160156 181.417969 136.246094 C 181.417969 136.003906 181.394531 135.757812 181.371094 135.515625 L 183.152344 130.476562 C 183.242188 130.296875 183.328125 130.097656 183.351562 129.898438 C 182.953125 128.742188 182.128906 129.585938 181.507812 130.007812 C 180.527344 131.273438 180.105469 133.40625 179.949219 134.605469 C 179.949219 134.605469 179.949219 134.625 179.949219 134.625 C 179.925781 134.9375 179.90625 135.226562 179.882812 135.535156 Z M 189.78125 94.421875 C 187.398438 95.796875 185.421875 97.75 184.21875 100.214844 C 187.175781 99.570312 188.578125 96.929688 189.78125 94.421875 Z M 176.65625 102.992188 C 177.035156 100.902344 177.65625 98.863281 178.546875 96.953125 C 177.324219 98.105469 175.921875 99.128906 175.078125 100.617188 C 174.144531 102.726562 174.210938 105.078125 174.1875 107.34375 C 176.191406 106.210938 178.390625 105.121094 179.59375 103.078125 C 180.882812 100.859375 181.707031 98.394531 182.773438 96.066406 C 182.417969 96.132812 181.683594 96.242188 181.328125 96.308594 C 179.503906 98.308594 178.101562 100.683594 176.65625 102.992188 Z M 184.21875 154.183594 C 184.664062 154.652344 185.109375 155.117188 185.53125 155.582031 C 185.132812 155.117188 184.6875 154.652344 184.21875 154.183594 Z M 159.308594 114.359375 C 160.21875 111.382812 158.953125 108.628906 157.195312 106.277344 C 156.839844 109.164062 158.039062 111.847656 159.308594 114.359375 Z M 175.011719 124.660156 C 177.480469 124.589844 180.015625 124.636719 182.375 123.835938 C 188.867188 121.972656 192.847656 116.109375 197.566406 111.738281 C 196.007812 111.714844 194.429688 111.804688 192.894531 111.980469 C 187.421875 113.648438 183.039062 117.375 178.902344 121.171875 C 179.058594 120.863281 179.347656 120.21875 179.480469 119.90625 C 180.707031 117.464844 182.375 115.269531 184.195312 113.226562 C 185.152344 112.78125 186.132812 112.359375 187.132812 111.960938 C 186.621094 111.9375 186.109375 111.9375 185.597656 111.914062 C 180.082031 114.003906 177.011719 119.441406 175.011719 124.660156 Z M 201.878906 112.691406 C 200.410156 114.15625 199.011719 115.734375 198.296875 117.730469 C 198.230469 119.175781 198.164062 120.617188 198.078125 122.0625 C 200.65625 121.660156 203.214844 120.574219 204.882812 118.488281 C 206.527344 116.398438 207.527344 113.914062 208.976562 111.695312 C 208.464844 111.695312 207.417969 111.695312 206.90625 111.695312 C 204.125 113.335938 202.078125 115.824219 200.035156 118.265625 C 199.855469 116.179688 200.765625 114.359375 201.878906 112.691406 Z M 191.78125 129.363281 C 194.25 127.101562 194.429688 123.726562 194.539062 120.617188 C 194.273438 120.75 193.761719 120.996094 193.515625 121.128906 C 192.316406 123.726562 191.671875 126.523438 191.78125 129.363281 Z M 191.070312 139.488281 C 191.449219 138.378906 191.804688 137.246094 192.183594 136.15625 C 193.472656 133.78125 195.007812 131.519531 196.808594 129.496094 C 198.007812 128.632812 199.632812 128.164062 200.5 126.921875 C 197.941406 128.585938 194.941406 129.585938 192.847656 131.894531 C 189.9375 134.960938 187.84375 138.753906 186.554688 142.75 C 189.335938 142.328125 192.160156 142.242188 194.917969 141.6875 C 198.433594 140.777344 201.925781 139.175781 204.28125 136.292969 C 207.460938 132.226562 209.019531 127.054688 209.53125 121.996094 C 206.996094 123.769531 205.394531 126.457031 203.503906 128.855469 C 200.144531 133.207031 195.917969 136.867188 191.070312 139.488281 Z M 175.765625 136.179688 C 176.257812 134.492188 175.902344 132.761719 175.324219 131.164062 C 174.722656 130.339844 174.121094 129.519531 173.519531 128.722656 C 173.722656 131.230469 173.898438 134.269531 175.765625 136.179688 Z M 149.144531 132.449219 C 151.101562 134.757812 154.171875 135.535156 157.0625 135.734375 C 154.683594 133.492188 151.769531 131.804688 148.5 131.273438 C 148.65625 131.585938 148.988281 132.160156 149.144531 132.449219 Z M 204.859375 140.066406 C 208.242188 140.398438 211.667969 139.621094 214.3125 137.445312 C 213.023438 137.3125 211.734375 137.222656 210.441406 137.179688 C 208.53125 138.042969 206.683594 139.023438 204.859375 140.066406 Z M 202.792969 151.808594 C 207.351562 151.144531 210.777344 147.300781 212.6875 143.371094 C 212.378906 143.507812 211.777344 143.792969 211.464844 143.929688 C 206.996094 145.058594 202.902344 148.144531 198.03125 147.101562 C 199.832031 145.460938 201.96875 144.304688 204.238281 143.417969 C 200.324219 143.929688 197.03125 146.191406 194.316406 148.921875 C 196.765625 150.65625 199.765625 151.785156 202.792969 151.808594 Z M 157.730469 151.34375 C 156.929688 150.898438 156.128906 150.476562 155.347656 150.054688 C 152.125 149.324219 149.078125 150.875 146.074219 151.808594 C 149.8125 153.386719 154.015625 152.609375 157.730469 151.34375 Z M 171.097656 151.476562 C 174.03125 152.652344 176.769531 154.316406 179.347656 156.183594 C 176.300781 156.003906 173.253906 155.648438 170.273438 154.984375 C 164.511719 154.582031 158.53125 154.25 153.125 156.648438 C 158.261719 158.425781 163.535156 159.710938 168.804688 161 C 170.695312 161.109375 172.585938 161.109375 174.476562 161 C 177.835938 159.976562 181.238281 159 184.332031 157.292969 C 180.417969 154.40625 176.433594 151.210938 171.542969 150.234375 C 168.761719 149.433594 165.847656 150.078125 163.046875 150.453125 C 165.757812 150.566406 168.539062 150.542969 171.097656 151.476562 Z M 201.210938 155.070312 C 203.480469 156.894531 206.371094 157.515625 209.199219 157.804688 C 208.085938 156.78125 206.90625 155.78125 205.726562 154.851562 C 204.703125 154.761719 203.679688 154.671875 202.636719 154.605469 C 201.722656 154.449219 200.8125 154.296875 199.921875 154.140625 C 200.34375 154.449219 200.789062 154.761719 201.210938 155.070312 Z M 177.945312 165.929688 C 179.28125 165.527344 180.707031 165.351562 181.972656 164.707031 C 183.617188 163.574219 184.777344 161.933594 186.109375 160.46875 C 185.265625 160.710938 184.398438 160.957031 183.53125 161.175781 C 181.371094 162.375 179.503906 164.019531 177.945312 165.929688 Z M 195.296875 105.386719 C 195.316406 105.167969 195.386719 104.722656 195.429688 104.523438 C 196.652344 103.945312 197.855469 103.347656 199.054688 102.726562 C 195.808594 101.992188 193.226562 104.101562 190.691406 105.722656 L 188.113281 106.898438 L 187.578125 107.320312 L 190.445312 107.230469 C 193.226562 107.851562 196.164062 108.628906 198.964844 107.585938 C 200.722656 106.921875 203.015625 106.742188 203.769531 104.722656 C 200.945312 104.476562 198.078125 104.832031 195.296875 105.386719 Z M 160.21875 122.328125 C 160.867188 123.082031 160.664062 124.859375 161.597656 125.191406 C 161.753906 125.234375 161.933594 125.257812 162.15625 125.214844 L 160.621094 121.105469 C 158.019531 115.734375 152.257812 113.113281 146.808594 111.558594 C 147.121094 112.914062 147.410156 114.289062 147.71875 115.644531 C 148.386719 118.597656 149.433594 121.574219 151.566406 123.792969 C 154.683594 127.054688 158.105469 130.03125 161.753906 132.671875 C 159.285156 126.257812 154.4375 121.21875 150.367188 115.777344 C 154.125 117.019531 158.0625 118.863281 160.21875 122.328125 Z M 237.355469 136.113281 C 236.710938 134.425781 236.042969 132.761719 235.398438 131.050781 C 231.128906 122.261719 224.679688 114.46875 216.402344 109.183594 C 217.003906 112.269531 217.960938 115.554688 220.453125 117.6875 C 228.371094 124.859375 233.53125 134.78125 235.421875 145.238281 C 235.886719 149.1875 235.753906 153.183594 235.710938 157.160156 C 235.664062 163.152344 233.507812 168.859375 231.195312 174.296875 C 230.460938 175.652344 229.726562 177.027344 228.96875 178.382812 C 227.792969 179.824219 227.148438 181.777344 225.523438 182.800781 C 222.699219 187.304688 218.472656 190.746094 214 193.5 C 212.332031 194.566406 210.6875 195.652344 208.996094 196.695312 C 209.464844 195.832031 209.976562 194.988281 210.421875 194.101562 C 210.933594 193.101562 211.445312 192.078125 211.957031 191.082031 C 213.824219 186.90625 214.980469 182.265625 214.136719 177.695312 C 213.066406 171.566406 209.199219 166.417969 204.882812 162.152344 C 197.875 155.292969 189.558594 150.011719 181.507812 144.484375 C 177.679688 141.886719 173.542969 139.289062 171.097656 135.246094 C 168.871094 131.738281 169.539062 127.167969 171.1875 123.546875 C 175.277344 114.136719 182.664062 106.253906 191.425781 100.949219 C 183.484375 104.632812 176.703125 110.472656 171.1875 117.199219 C 168.582031 120.527344 166.226562 124.214844 165.335938 128.410156 C 164.113281 132.804688 166.070312 137.511719 169.160156 140.664062 C 173.5 145.082031 178.703125 148.546875 183.019531 153.007812 C 183.417969 153.386719 183.796875 153.738281 184.175781 154.140625 C 184.195312 154.160156 184.195312 154.160156 184.21875 154.183594 C 184.6875 154.652344 185.132812 155.117188 185.53125 155.582031 C 185.554688 155.605469 185.554688 155.628906 185.578125 155.628906 C 194.117188 165.417969 191.359375 177.273438 191.359375 177.273438 C 191.160156 177.871094 190.738281 179.046875 190.535156 179.648438 C 190.113281 180.757812 189.535156 181.777344 188.890625 182.753906 C 188.578125 183.199219 188.246094 183.644531 187.890625 184.042969 C 187 184.996094 186.109375 185.90625 185.152344 186.796875 C 184.6875 187.21875 184.175781 187.59375 183.640625 187.929688 C 182.953125 188.371094 182.238281 188.816406 181.507812 189.238281 C 181.0625 189.503906 180.617188 189.75 180.148438 190.015625 C 176.035156 192.324219 171.363281 193.457031 166.714844 194.121094 C 164.734375 194.34375 162.511719 194.699219 160.777344 193.476562 C 158.152344 191.8125 155.683594 189.882812 153.527344 187.640625 C 147.785156 181.957031 143.539062 174.851562 141.113281 167.171875 C 138.46875 157.957031 138.445312 148.058594 141.203125 138.886719 C 141.558594 137.976562 141.847656 137.066406 142.160156 136.15625 C 143.605469 132.472656 145.964844 128.832031 145.117188 124.679688 C 144.917969 124.214844 144.496094 123.257812 144.296875 122.792969 C 139.445312 130.675781 135.597656 139.445312 135.21875 148.8125 C 135.109375 154.429688 134.820312 160.199219 136.554688 165.617188 C 136.667969 166.371094 136.800781 167.125 136.910156 167.859375 C 140.914062 181 150.011719 192.589844 162.132812 199.207031 C 164.023438 200.160156 165.890625 201.449219 168.050781 201.691406 C 171.253906 201.359375 174.34375 200.449219 177.4375 199.628906 C 178.148438 199.40625 178.859375 199.183594 179.59375 198.984375 C 187.222656 196.1875 194.382812 190.902344 197.476562 183.175781 C 198.433594 180.957031 198.855469 178.625 199.011719 176.25 C 200.390625 166.550781 195.941406 158.914062 192.960938 155.050781 C 194.917969 157.160156 196.964844 159.203125 198.519531 161.644531 C 200.902344 165.394531 202.835938 169.613281 202.902344 174.121094 C 203.28125 180.890625 200.011719 187.152344 196.207031 192.523438 C 199.011719 190.28125 201.703125 187.839844 203.679688 184.820312 C 204.039062 184.066406 204.414062 183.3125 204.792969 182.578125 C 206.949219 177.761719 205.683594 172.566406 205.082031 167.59375 C 208.285156 173.566406 209.351562 180.757812 206.882812 187.195312 C 204.617188 194.453125 199.1875 199.984375 194.160156 205.421875 C 203.613281 204.132812 212.734375 200.359375 220.207031 194.410156 C 230.882812 186.042969 238.023438 173.429688 239.78125 160 C 240.378906 151.988281 240.15625 143.75 237.355469 136.113281 Z M 237.355469 136.113281 " fill-opacity="1" fill-rule="nonzero"/></g></svg>